<?xml version="1.0" encoding="UTF-8"?>
<svg xmlns="http://www.w3.org/2000/svg" xmlns:xlink="http://www.w3.org/1999/xlink" width="450px" height="450px" viewBox="0 0 450 450" version="1.1">
<g id="surface1">
<path style=" stroke:none;fill-rule:nonzero;fill:rgb(20%,20%,20%);fill-opacity:1;" d="M 273.980469 294.371094 C 273.980469 294.371094 265.132812 301.324219 257.488281 301.3125 C 249.839844 301.296875 253.402344 300.105469 252.449219 296.898438 C 251.496094 293.691406 254.351562 295.441406 255.523438 294.710938 C 256.523438 294.085938 258.847656 294.074219 261.019531 292.761719 C 262.335938 291.96875 263.355469 290.394531 264.425781 289.25 C 266.46875 287.058594 268.09375 285.261719 268.09375 285.261719 "/>
<path style="fill:none;stroke-width:3.5;stroke-linecap:round;stroke-linejoin:miter;stroke:rgb(20%,20%,20%);stroke-opacity:1;stroke-miterlimit:10;" d="M 276.084585 218.742491 C 276.084585 218.742491 263.285887 229.384566 255.755114 224.821883 C 248.224342 220.261293 254.549255 210.709158 254.915054 207.870295 C 255.280852 205.02934 259.642788 204.173706 259.642788 204.173706 " transform="matrix(1.836735,0,0,1.86722,-218.633198,-110.584867)"/>
<path style=" stroke:none;fill-rule:nonzero;fill:rgb(74.509804%,39.607843%,25.882353%);fill-opacity:1;" d="M 216.136719 382.949219 C 224.199219 370.660156 280.789062 284.386719 280.789062 284.386719 L 309.824219 308.417969 C 309.824219 308.417969 255 392.003906 246.15625 405.480469 C 243.832031 409.027344 214.28125 385.777344 216.136719 382.949219 Z M 216.136719 382.949219 "/>
<path style=" stroke:none;fill-rule:nonzero;fill:rgb(20%,20%,20%);fill-opacity:1;" d="M 97.972656 304.988281 C 110.90625 299.121094 139.386719 285.652344 154.296875 274.335938 C 173.691406 259.621094 208.523438 219.003906 208.523438 219.003906 L 233.488281 260.746094 C 233.488281 260.746094 198.332031 299.246094 178.292969 314.453125 C 159.3125 328.855469 128.382812 340.5 128.382812 340.5 C 128.382812 340.5 104.3125 319.386719 97.859375 313.730469 C 94.867188 311.101562 93.832031 306.863281 97.972656 304.988281 Z M 97.972656 304.988281 "/>
<path style=" stroke:none;fill-rule:nonzero;fill:rgb(32.156863%,32.156863%,32.156863%);fill-opacity:1;" d="M 36.902344 43.550781 C 27.476562 55.316406 22.113281 52.722656 16.59375 48.152344 C 11.070312 43.585938 7.484375 38.769531 16.910156 27.003906 C 26.332031 15.234375 41.222656 -3.878906 46.746094 0.691406 C 52.265625 5.261719 46.328125 31.78125 36.902344 43.550781 Z M 36.902344 43.550781 "/>
<path style=" stroke:none;fill-rule:nonzero;fill:rgb(20%,20%,20%);fill-opacity:1;" d="M 124.726562 145.722656 C 130.5 138.515625 159.214844 102.65625 159.214844 102.65625 L 251.085938 178.691406 L 200.703125 241.597656 C 200.703125 241.597656 167.722656 203.996094 153.425781 187.699219 C 145.578125 178.75 133.855469 165.386719 126.820312 157.367188 C 123.222656 153.265625 122.789062 148.136719 124.726562 145.722656 Z M 124.726562 145.722656 "/>
<path style=" stroke:none;fill-rule:nonzero;fill:rgb(74.509804%,39.607843%,25.882353%);fill-opacity:1;" d="M 323.066406 262.660156 C 333.0625 270.789062 335.609375 273.742188 335.609375 273.742188 C 335.609375 273.742188 338.230469 281.824219 353.714844 296.300781 C 374.609375 315.832031 449.679688 380.382812 449.679688 380.382812 L 395.71875 450.496094 L 289.246094 306.207031 C 289.246094 306.207031 268.585938 289.039062 261.914062 282.945312 C 252.101562 273.976562 301.148438 244.84375 323.066406 262.660156 Z M 323.066406 262.660156 "/>
<path style=" stroke:none;fill-rule:nonzero;fill:rgb(32.156863%,32.156863%,32.156863%);fill-opacity:1;" d="M 184.996094 228.597656 L 235.375 165.6875 C 235.375 165.6875 318.050781 234.117188 338.191406 250.785156 C 347.351562 258.367188 337.269531 280.597656 337.269531 280.597656 L 301.617188 325.117188 Z M 184.996094 228.597656 "/>
<path style=" stroke:none;fill-rule:nonzero;fill:rgb(20%,20%,20%);fill-opacity:1;" d="M 2.589844 26.105469 C 6.59375 21.109375 17.316406 7.71875 17.316406 7.71875 L 165.351562 130.238281 L 143.652344 157.339844 C 143.652344 157.339844 19.089844 54.246094 2.277344 40.332031 C -1.371094 37.308594 -0.164062 29.542969 2.589844 26.105469 Z M 2.589844 26.105469 "/>
</g>
</svg>
