<?xml version="1.0" encoding="UTF-8"?>
<svg xmlns="http://www.w3.org/2000/svg" xmlns:xlink="http://www.w3.org/1999/xlink" width="450px" height="450px" viewBox="0 0 450 450" version="1.1">
<g id="surface1">
<path style="fill:none;stroke-width:5;stroke-linecap:round;stroke-linejoin:miter;stroke:rgb(38.039216%,38.039216%,38.039216%);stroke-opacity:1;stroke-miterlimit:10;" d="M 209.931818 159.657299 L 203.550916 171.236101 " transform="matrix(3.308824,0,0,3.061224,-594.092184,-345.821051)"/>
<path style=" stroke:none;fill-rule:nonzero;fill:rgb(6.666667%,25.882353%,14.117647%);fill-opacity:1;" d="M 57.851562 183.898438 C 70.15625 176.230469 124.773438 142.199219 124.773438 142.199219 L 144.320312 161.730469 C 144.320312 161.730469 98.839844 199.085938 87.195312 208.605469 C 81.855469 212.972656 74.375 214.207031 70.824219 210.921875 C 66.207031 206.652344 60.15625 201.054688 56.75 197.902344 C 53.15625 194.578125 53.167969 186.816406 57.851562 183.898438 Z M 57.851562 183.898438 "/>
<path style="fill:none;stroke-width:5;stroke-linecap:round;stroke-linejoin:miter;stroke:rgb(38.039216%,38.039216%,38.039216%);stroke-opacity:1;stroke-miterlimit:10;" d="M 294.764179 257.250241 L 295.945916 245.198028 " transform="matrix(3.308824,0,0,3.061224,-594.092184,-345.821051)"/>
<path style="fill:none;stroke-width:5;stroke-linecap:round;stroke-linejoin:miter;stroke:rgb(38.039216%,38.039216%,38.039216%);stroke-opacity:1;stroke-miterlimit:10;" d="M 288.384457 211.171101 L 277.513902 222.040424 " transform="matrix(3.308824,0,0,3.061224,-594.092184,-345.821051)"/>
<path style="fill:none;stroke-width:5;stroke-linecap:round;stroke-linejoin:miter;stroke:rgb(38.039216%,38.039216%,38.039216%);stroke-opacity:1;stroke-miterlimit:10;" d="M 311.068832 233.855293 L 300.199457 244.725892 " transform="matrix(3.308824,0,0,3.061224,-594.092184,-345.821051)"/>
<path style="fill:none;stroke-width:12.5;stroke-linecap:round;stroke-linejoin:miter;stroke:rgb(50.980392%,50.980392%,50.980392%);stroke-opacity:1;stroke-miterlimit:10;" d="M 262.390985 206.916778 L 298.309388 242.834799 " transform="matrix(3.308824,0,0,3.061224,-594.092184,-345.821051)"/>
<path style="fill:none;stroke-width:12.5;stroke-linecap:round;stroke-linejoin:miter;stroke:rgb(50.980392%,50.980392%,50.980392%);stroke-opacity:1;stroke-miterlimit:10;" d="M 273.024249 196.283523 L 308.942652 232.201543 " transform="matrix(3.308824,0,0,3.061224,-594.092184,-345.821051)"/>
<path style=" stroke:none;fill-rule:nonzero;fill:rgb(9.803922%,38.039216%,20.784314%);fill-opacity:1;" d="M 7.835938 82.121094 L 85.636719 10.140625 L 356.648438 260.871094 L 278.84375 332.855469 Z M 7.835938 82.121094 "/>
<path style="fill:none;stroke-width:5;stroke-linecap:round;stroke-linejoin:miter;stroke:rgb(6.666667%,25.882353%,14.117647%);stroke-opacity:1;stroke-miterlimit:10;" d="M 206.38661 115.467976 L 182.048277 139.807194 " transform="matrix(3.308824,0,0,3.061224,-594.092184,-345.821051)"/>
<path style="fill:none;stroke-width:5;stroke-linecap:round;stroke-linejoin:miter;stroke:rgb(6.666667%,25.882353%,14.117647%);stroke-opacity:1;stroke-miterlimit:10;" d="M 263.572721 221.33222 L 287.911054 196.993002 " transform="matrix(3.308824,0,0,3.061224,-594.092184,-345.821051)"/>
<path style="fill:none;stroke-width:10;stroke-linecap:round;stroke-linejoin:miter;stroke:rgb(6.666667%,25.882353%,14.117647%);stroke-opacity:1;stroke-miterlimit:10;" d="M 237.723277 144.719955 L 230.782791 151.660345 " transform="matrix(3.308824,0,0,3.061224,-594.092184,-345.821051)"/>
</g>
</svg>
