<?xml version="1.0" encoding="UTF-8"?>
<svg xmlns="http://www.w3.org/2000/svg" xmlns:xlink="http://www.w3.org/1999/xlink" width="300px" height="300px" viewBox="0 0 300 300" version="1.1">
<g id="surface1">
<path style=" stroke:none;fill-rule:nonzero;fill:rgb(39.215686%,42.352941%,45.882353%);fill-opacity:1;" d="M 163.609375 175.652344 C 163.609375 175.652344 162.351562 177.324219 160.753906 179.367188 C 159.921875 180.433594 159.160156 181.867188 158.089844 182.652344 C 156.320312 183.949219 154.316406 184.140625 153.503906 184.757812 C 152.550781 185.476562 151.023438 186.878906 151.023438 186.878906 C 151.023438 186.878906 154.265625 190.402344 155.695312 190.273438 C 162.285156 189.6875 169.371094 183.019531 169.371094 183.019531 "/>
<path style="fill:none;stroke-width:3;stroke-linecap:round;stroke-linejoin:miter;stroke:rgb(39.215686%,42.352941%,45.882353%);stroke-opacity:1;stroke-miterlimit:10;" d="M 241.318685 187.858216 C 241.318685 187.858216 238.217786 186.57319 238.050716 190.92056 C 237.968099 193.056237 232.22345 199.758282 239.805872 203.468568 C 245.710247 206.358972 254.515403 197.591836 254.515403 197.591836 " transform="matrix(2.12766,0,0,2.158273,-359.861979,-239.941576)"/>
<path style=" stroke:none;fill-rule:nonzero;fill:rgb(21.176471%,23.137255%,25.098039%);fill-opacity:1;" d="M 4.476562 37.804688 C 8.578125 32.417969 18.84375 18.925781 18.84375 18.925781 L 124.039062 101.296875 L 101.632812 130.746094 C 101.632812 130.746094 17.027344 64.503906 3.316406 53.765625 C -0.3125 50.925781 1.410156 41.835938 4.476562 37.804688 Z M 4.476562 37.804688 "/>
<path style=" stroke:none;fill-rule:nonzero;fill:rgb(39.215686%,42.352941%,45.882353%);fill-opacity:1;" d="M 42.007812 80.21875 C 46.109375 74.832031 56.375 61.339844 56.375 61.339844 L 161.570312 143.710938 L 139.164062 173.160156 C 139.164062 173.160156 54.558594 106.917969 40.847656 96.179688 C 37.21875 93.339844 38.941406 84.25 42.007812 80.21875 Z M 42.007812 80.21875 "/>
<path style=" stroke:none;fill-rule:nonzero;fill:rgb(60.784314%,65.882353%,71.372549%);fill-opacity:1;" d="M 47.085938 22.179688 C 43.117188 27.394531 31.957031 32.628906 26.40625 28.28125 C 20.855469 23.9375 23.019531 11.65625 26.984375 6.445312 C 30.953125 1.230469 35.792969 4.304688 41.34375 8.648438 C 46.894531 12.996094 51.050781 16.96875 47.085938 22.183594 Z M 47.085938 22.179688 "/>
<path style=" stroke:none;fill-rule:nonzero;fill:rgb(60.784314%,65.882353%,71.372549%);fill-opacity:1;" d="M 165.445312 114.855469 C 161.480469 120.070312 148.816406 124.128906 141.417969 118.335938 C 134.015625 112.539062 134.679688 99.085938 138.648438 93.875 C 142.613281 88.660156 148.957031 92.90625 156.355469 98.703125 C 163.753906 104.496094 169.410156 109.644531 165.445312 114.855469 Z M 165.445312 114.855469 "/>
<path style=" stroke:none;fill-rule:nonzero;fill:rgb(60.784314%,65.882353%,71.372549%);fill-opacity:1;" d="M 2.082031 18.878906 C 6.179688 13.492188 16.445312 0 16.445312 0 L 175.75 124.730469 C 175.75 124.730469 208.410156 157.863281 205.527344 161.65625 C 201.398438 167.082031 153.339844 154.179688 153.339844 154.179688 C 153.339844 154.179688 25.226562 53.867188 4.460938 37.609375 C -1.035156 33.308594 -0.984375 22.910156 2.082031 18.878906 Z M 2.082031 18.878906 "/>
<path style=" stroke:none;fill-rule:nonzero;fill:rgb(74.509804%,39.607843%,25.882353%);fill-opacity:1;" d="M 138.75 173.496094 L 153.871094 150.113281 C 153.871094 150.113281 185.992188 146.363281 202.804688 159.523438 C 210.46875 165.527344 212.433594 167.722656 212.433594 167.722656 C 212.433594 167.722656 214.519531 173.789062 226.421875 184.511719 C 242.476562 198.980469 300.097656 246.714844 300.097656 246.714844 L 260.171875 300.351562 L 177.777344 192.84375 C 177.777344 192.84375 161.925781 180.15625 156.800781 175.640625 C 149.261719 169.003906 138.75 173.496094 138.75 173.496094 Z M 138.75 173.496094 "/>
</g>
</svg>
